# Blender v2.81 (sub 16) OBJ File: 'stand2.blend'
# www.blender.org
mtllib corner1.mtl
o Cube_Cube.001
v -3.250000 -0.200000 3.250000
v -3.250000 0.200000 3.250000
v -3.250000 -0.200000 -3.250000
v -3.250000 0.200000 -3.250000
v 3.250000 -0.200000 3.250000
v 3.250000 0.200000 3.250000
v 3.250000 -0.200000 -3.250000
v 3.250000 0.200000 -3.250000
vt 0.471204 0.000092
vt 0.500184 0.000092
vt 0.500184 0.471021
vt 0.471204 0.471021
vt 0.471020 0.500000
vt 0.471020 0.528980
vt 0.000092 0.528980
vt 0.000092 0.500000
vt 0.529349 0.471021
vt 0.500368 0.471021
vt 0.500369 0.000092
vt 0.529349 0.000092
vt 0.000092 0.029072
vt 0.000092 0.000092
vt 0.471020 0.000092
vt 0.471020 0.029072
vt 0.471020 0.999908
vt 0.000092 0.999908
vn -1.0000 0.0000 0.0000
vn 0.0000 0.0000 -1.0000
vn 1.0000 0.0000 0.0000
vn 0.0000 0.0000 1.0000
vn 0.0000 -1.0000 0.0000
vn 0.0000 1.0000 0.0000
usemtl None
s off
f 1/1/1 2/2/1 4/3/1 3/4/1
f 3/5/2 4/6/2 8/7/2 7/8/2
f 7/9/3 8/10/3 6/11/3 5/12/3
f 5/13/4 6/14/4 2/15/4 1/16/4
f 3/5/5 7/8/5 5/13/5 1/16/5
f 8/7/6 4/6/6 2/17/6 6/18/6
